<svg xmlns="http://www.w3.org/2000/svg" width="1180" height="127" viewBox="0 0 1180 127" role="img" aria-label="David Data logo">
  <path d="M 37 114 L 11 114.5 L 10.2 114 L 10.2 28 L 10.4 27 L 11 26.6 L 34 26.1 L 43 26.7 L 51 28.7 L 57 31.7 L 64 37 L 69 43.1 L 73.2 52 L 74.5 57 L 75.4 66 L 74.7 78 L 72.3 89 L 69.1 96 L 64 102.7 L 57 108.3 L 50 111.5 L 43 113.3 Z
M 35.2 100 L 40 99.4 L 44 98.1 L 47 96.3 L 52 91.6 L 54.4 88 L 57.2 81 L 58.4 75 L 58.4 62 L 57.1 56 L 55.4 52 L 52 47.3 L 49 44.6 L 45 42.5 L 39 40.8 L 27 40.7 L 26.3 42 L 26.3 99 L 27 99.7 Z
M 183 114.5 L 166 114.2 L 160.2 98 L 159 96.7 L 131 96.7 L 130 98 L 124 114.5 L 108 114.5 L 106.6 114 L 140.6 27 L 142 25.5 L 148 25.5 L 149.4 27 L 182.3 110 L 183.4 113 L 183.6 114 Z
M 154.5 84 L 154.3 82 L 145 54.4 L 135.4 84 L 136 84.4 L 154 84.4 Z
M 252 115.6 L 244 115.6 L 242.8 115 L 210.7 28 L 211 26.7 L 227 26.6 L 228.3 27 L 248 84.1 L 269 27 L 270 26.6 L 285 26.6 L 286.3 27 L 255.3 108 Z
M 338 114.5 L 323 114.5 L 322.5 114 L 322.5 28 L 323 26.7 L 338 26.6 L 338.4 27 L 338.5 114 Z
M 410 114 L 384 114.5 L 383.2 114 L 383.2 28 L 383.4 27 L 384 26.6 L 407 26.1 L 416 26.7 L 424 28.7 L 430 31.7 L 437 37 L 442 43.1 L 446.2 52 L 447.5 57 L 448.4 66 L 447.7 78 L 445.3 89 L 442.1 96 L 437 102.7 L 430 108.3 L 423 111.5 L 416 113.3 Z
M 408.2 100 L 413 99.4 L 417 98.1 L 420 96.3 L 425 91.6 L 427.4 88 L 430.2 81 L 431.4 75 L 431.4 62 L 430.1 56 L 428.4 52 L 425 47.3 L 422 44.6 L 418 42.5 L 412 40.8 L 400 40.7 L 399.3 42 L 399.3 99 L 400 99.7 Z
M 695 116.4 L 689 116.5 L 686 115.5 L 683.6 113 L 683.3 67 L 669 58.5 L 662.7 53 L 658 46.6 L 657 46 L 603 57.5 L 601 58.4 L 598 58.6 L 596 59.4 L 593 59.7 L 565 66.4 L 563 66.5 L 561 67.5 L 559 67.6 L 544 71.5 L 543 72 L 542.5 77 L 540.5 81 L 537 84.2 L 532 86.2 L 528 86.4 L 524 85.5 L 522 84.5 L 519.2 82 L 516.5 78 L 515.6 75 L 515.7 71 L 517.6 66 L 521 62.5 L 524 60.6 L 529 59.7 L 534 60.6 L 540 64.4 L 589 42.6 L 648 17.4 L 652.9 15 L 656 11.7 L 659 10.7 L 665 10.6 L 668 11.6 L 670.3 14 L 670.7 19 L 670 19.7 L 652 19.7 L 638 26.3 L 634 27.7 L 622 33.3 L 558 60.7 L 549 64.8 L 549 65.8 L 570 60.6 L 577 59.4 L 579 58.6 L 608 52.5 L 610 51.6 L 613 51.5 L 615 50.6 L 618 50.4 L 620 49.6 L 623 49.3 L 643 44.7 L 646 44.4 L 648 43.6 L 655 42.5 L 655.7 42 L 655.5 41 L 654.7 39 L 653.5 32 L 653.5 28 L 654 27.1 L 670 27 L 671.1 28 L 671.7 35 L 672.6 38 L 674 38.7 L 712 31.2 L 714 27.4 L 729 27.4 L 729.9 28 L 729.2 37 L 727.4 43 L 723.5 50 L 716 57.4 L 700.5 67 L 700.4 112 L 699.4 114 L 698 115.2 Z
M 548.9 66 L 548 65.5 L 546.4 66 L 547 66.5 Z
M 672 25.3 L 653 25.4 L 651.9 24 L 651.9 23 L 653 21.6 L 672 21.6 L 672.7 23 Z
M 693.8 51 L 699 48.4 L 705 44.5 L 709.4 40 L 711.5 36 L 711 35.5 L 710 35.6 L 708 36.4 L 680 41.5 L 676.7 43 L 683 47.3 L 691 51.5 L 693 51.5 Z
M 731 25.1 L 712 25.5 L 710.8 25 L 710.5 23 L 712 21.5 L 730 21.6 L 731.5 23 Z
M 729 19.9 L 713 19.9 L 712.4 19 L 712.5 15 L 715 11.6 L 718 10.7 L 725 11 L 727 11.6 L 729.4 14 L 729.9 19 Z
M 833 114 L 809 114.5 L 808.2 114 L 808.2 28 L 808.3 27 L 809 26.6 L 830 26.1 L 839 26.7 L 846 28.6 L 854 32.7 L 859 37 L 864.3 44 L 867.2 50 L 869.3 59 L 869.8 67 L 869.3 78 L 867.2 88 L 864.3 95 L 859 102.6 L 852 108.4 L 846 111.3 L 843 112.2 Z
M 831.7 103 L 837 102.3 L 842 100.3 L 846 97.5 L 849.4 94 L 851.4 91 L 855.1 82 L 856.3 76 L 856.4 61 L 855.1 55 L 853.1 50 L 850 45.4 L 846 41.8 L 842 39.7 L 835 37.7 L 822 37.8 L 821 38 L 820.6 39 L 820.6 102 L 821 102.5 L 825 103 Z
M 973 114.4 L 960 114.5 L 954.4 98 L 953 96.2 L 922 96.3 L 916.3 112 L 915 114.5 L 902 114.5 L 901.5 114 L 937 25.6 L 940 25.5 L 941.3 27 L 973.3 113 L 973.4 114 Z
M 949.8 86 L 939.3 53 L 938 50.6 L 925.5 86 L 926 86.7 L 949 86.7 Z
M 1041 114.5 L 1030 114.5 L 1029.1 114 L 1029.1 39 L 1028 37.9 L 1002 37.9 L 1001.4 37 L 1001.4 28 L 1002 26.6 L 1070 26.6 L 1070.4 27 L 1070.5 37 L 1070 37.9 L 1043 37.9 L 1042 38 L 1041.5 39 L 1041.5 114 Z
M 1169 114.4 L 1156 114.5 L 1150.4 98 L 1149 96.2 L 1118 96.3 L 1112.3 112 L 1111 114.5 L 1098 114.5 L 1097.5 114 L 1133 25.6 L 1136 25.5 L 1137.3 27 L 1169.3 113 L 1169.4 114 Z
M 1145.8 86 L 1135.3 53 L 1134 50.6 L 1121.5 86 L 1122 86.7 L 1145 86.7 Z" fill="#FFFFFF" fill-rule="evenodd"/>
</svg>
