<svg viewBox="0 0 1040 280" width="1040" height="280" xmlns="http://www.w3.org/2000/svg" preserveAspectRatio="xMidYMid meet" font-family="ui-sans-serif, -apple-system, 'Segoe UI', Roboto, Helvetica, Arial, sans-serif">
  <defs>
    <filter id="sh" x="-20%" y="-40%" width="140%" height="180%">
      <feDropShadow dx="0" dy="2" stdDeviation="5" flood-color="#1F3A60" flood-opacity="0.10"/>
    </filter>
    <marker id="arw" viewBox="0 0 12 12" refX="8" refY="6" markerWidth="6.5" markerHeight="6.5" orient="auto-start-reverse">
      <path d="M2 2 L10 6 L2 10 Z" fill="#8aa0bf"/>
    </marker>
  </defs>
  <rect x="2" y="2" width="1036" height="276" rx="20" fill="#F7F9FC" stroke="#E6ECF4"/>
  <line x1="194" y1="88" x2="228" y2="88" stroke="#8aa0bf" stroke-width="2" stroke-linecap="round" marker-end="url(#arw)"/>
  <line x1="400" y1="88" x2="434" y2="88" stroke="#8aa0bf" stroke-width="2" stroke-linecap="round" marker-end="url(#arw)"/>
  <line x1="606" y1="88" x2="640" y2="88" stroke="#8aa0bf" stroke-width="2" stroke-linecap="round" marker-end="url(#arw)"/>
  <line x1="812" y1="88" x2="846" y2="88" stroke="#8aa0bf" stroke-width="2" stroke-linecap="round" marker-end="url(#arw)"/>
  <path d="M932 146 L932 214 Q932 222 924 222 L528 222 Q520 222 520 214 L520 150" fill="none" stroke="#1F3A60" stroke-width="2" stroke-linecap="round" stroke-dasharray="6 5" marker-end="url(#arw)"/>
  <rect x="640" y="210" width="172" height="24" rx="12" fill="#EAF0F8" stroke="#CBD8E8"/>
  <text x="726" y="226" text-anchor="middle" font-size="12" font-weight="600" fill="#1F3A60">loop until end_date</text>
  <g filter="url(#sh)"><rect x="26" y="34" width="168" height="108" rx="13" fill="#FFFFFF" stroke="#D5DEEC"/></g>
  <circle cx="52" cy="62" r="14" fill="#1F3A60"/><text x="52" y="67" text-anchor="middle" font-size="13" font-weight="700" fill="#FFFFFF">1</text>
  <text x="46" y="104" font-size="14.5" font-weight="700" fill="#0F2143">Pick a scenario</text>
  <text x="46" y="124" font-size="11.5" fill="#64748B">from the library</text>
  <g filter="url(#sh)"><rect x="232" y="34" width="168" height="108" rx="13" fill="#FFFFFF" stroke="#D5DEEC"/></g>
  <circle cx="258" cy="62" r="14" fill="#1F3A60"/><text x="258" y="67" text-anchor="middle" font-size="13" font-weight="700" fill="#FFFFFF">2</text>
  <text x="252" y="104" font-size="14.5" font-weight="700" fill="#0F2143">Set as_of = start</text>
  <text x="252" y="124" font-size="11.5" fill="#64748B">the as-of cursor</text>
  <g filter="url(#sh)"><rect x="438" y="34" width="168" height="108" rx="13" fill="#EAF0F8" stroke="#C3D2E8"/></g>
  <circle cx="464" cy="62" r="14" fill="#1F3A60"/><text x="464" y="67" text-anchor="middle" font-size="13" font-weight="700" fill="#FFFFFF">3</text>
  <text x="458" y="104" font-size="14.5" font-weight="700" fill="#0F2143">Query visible data</text>
  <text x="458" y="124" font-size="11.5" fill="#5A6B82">bounded by as_of</text>
  <g filter="url(#sh)"><rect x="644" y="34" width="168" height="108" rx="13" fill="#EAF0F8" stroke="#C3D2E8"/></g>
  <circle cx="670" cy="62" r="14" fill="#1F3A60"/><text x="670" y="67" text-anchor="middle" font-size="13" font-weight="700" fill="#FFFFFF">4</text>
  <text x="664" y="104" font-size="14.5" font-weight="700" fill="#0F2143">Agent decides</text>
  <text x="664" y="124" font-size="11.5" fill="#5A6B82">records its action</text>
  <g filter="url(#sh)"><rect x="850" y="34" width="168" height="108" rx="13" fill="#EAF0F8" stroke="#C3D2E8"/></g>
  <circle cx="876" cy="62" r="14" fill="#1F3A60"/><text x="876" y="67" text-anchor="middle" font-size="13" font-weight="700" fill="#FFFFFF">5</text>
  <text x="870" y="104" font-size="14.5" font-weight="700" fill="#0F2143">Advance as_of</text>
  <text x="870" y="124" font-size="11.5" fill="#5A6B82">next trading day</text>
</svg>
