<svg viewBox="0 0 560 604" width="560" height="604" xmlns="http://www.w3.org/2000/svg" preserveAspectRatio="xMidYMid meet" font-family="ui-sans-serif, -apple-system, 'Segoe UI', Roboto, Helvetica, Arial, sans-serif">
  <defs>
    <filter id="sh" x="-20%" y="-40%" width="140%" height="180%">
      <feDropShadow dx="0" dy="2" stdDeviation="5" flood-color="#000000" flood-opacity="0.35"/>
    </filter>
    <marker id="arw" viewBox="0 0 12 12" refX="8" refY="6" markerWidth="6.5" markerHeight="6.5" orient="auto-start-reverse">
      <path d="M2 2 L10 6 L2 10 Z" fill="#7E90A8"/>
    </marker>
  </defs>
  <rect x="2" y="2" width="556" height="600" rx="20" fill="#0E1726" stroke="#243450"/>
  <line x1="310" y1="80" x2="310" y2="104" stroke="#7E90A8" stroke-width="1.6" stroke-linecap="round" marker-end="url(#arw)"/>
  <line x1="310" y1="150" x2="310" y2="174" stroke="#7E90A8" stroke-width="1.6" stroke-linecap="round" marker-end="url(#arw)"/>
  <line x1="310" y1="220" x2="310" y2="244" stroke="#7E90A8" stroke-width="1.6" stroke-linecap="round" marker-end="url(#arw)"/>
  <line x1="310" y1="290" x2="310" y2="314" stroke="#7E90A8" stroke-width="1.6" stroke-linecap="round" marker-end="url(#arw)"/>
  <line x1="310" y1="360" x2="310" y2="384" stroke="#7E90A8" stroke-width="1.6" stroke-linecap="round" marker-end="url(#arw)"/>
  <line x1="310" y1="430" x2="310" y2="454" stroke="#7E90A8" stroke-width="1.6" stroke-linecap="round" marker-end="url(#arw)"/>
  <line x1="310" y1="500" x2="310" y2="524" stroke="#7E90A8" stroke-width="1.6" stroke-linecap="round" marker-end="url(#arw)"/>
  <g filter="url(#sh)"><rect x="104" y="34" width="416" height="46" rx="11" fill="#29456F" stroke="#3B5C8F"/></g>
  <circle cx="72" cy="57" r="15" fill="#6C8CC7"/><text x="72" y="62" text-anchor="middle" font-size="14" font-weight="700" fill="#0B1422">1</text>
  <text x="126" y="62" font-size="13.5" font-weight="600" fill="#FFFFFF">Macro regime + trading calendar</text>
  <g filter="url(#sh)"><rect x="104" y="104" width="416" height="46" rx="11" fill="#16223A" stroke="#33476A"/></g>
  <circle cx="72" cy="127" r="15" fill="#6C8CC7"/><text x="72" y="132" text-anchor="middle" font-size="14" font-weight="700" fill="#0B1422">2</text>
  <text x="126" y="132" font-size="13.5" font-weight="600" fill="#E6EDF6">Company identities + sector archetypes</text>
  <g filter="url(#sh)"><rect x="104" y="174" width="416" height="46" rx="11" fill="#16223A" stroke="#33476A"/></g>
  <circle cx="72" cy="197" r="15" fill="#6C8CC7"/><text x="72" y="202" text-anchor="middle" font-size="14" font-weight="700" fill="#0B1422">3</text>
  <text x="126" y="202" font-size="13.5" font-weight="600" fill="#E6EDF6">Financial statements + metrics</text>
  <g filter="url(#sh)"><rect x="104" y="244" width="416" height="46" rx="11" fill="#16223A" stroke="#33476A"/></g>
  <circle cx="72" cy="267" r="15" fill="#6C8CC7"/><text x="72" y="272" text-anchor="middle" font-size="14" font-weight="700" fill="#0B1422">4</text>
  <text x="126" y="272" font-size="13.5" font-weight="600" fill="#E6EDF6">Consensus estimates + guidance</text>
  <g filter="url(#sh)"><rect x="104" y="314" width="416" height="46" rx="11" fill="#16223A" stroke="#33476A"/></g>
  <circle cx="72" cy="337" r="15" fill="#6C8CC7"/><text x="72" y="342" text-anchor="middle" font-size="14" font-weight="700" fill="#0B1422">5</text>
  <text x="126" y="342" font-size="13.5" font-weight="600" fill="#E6EDF6">Event timeline</text>
  <g filter="url(#sh)"><rect x="104" y="384" width="416" height="46" rx="11" fill="#16223A" stroke="#33476A"/></g>
  <circle cx="72" cy="407" r="15" fill="#6C8CC7"/><text x="72" y="412" text-anchor="middle" font-size="14" font-weight="700" fill="#0B1422">6</text>
  <text x="126" y="412" font-size="13.5" font-weight="600" fill="#E6EDF6">OHLCV prices: market + sector + event</text>
  <g filter="url(#sh)"><rect x="104" y="454" width="416" height="46" rx="11" fill="#16223A" stroke="#33476A"/></g>
  <circle cx="72" cy="477" r="15" fill="#6C8CC7"/><text x="72" y="482" text-anchor="middle" font-size="14" font-weight="700" fill="#0B1422">7</text>
  <text x="126" y="482" font-size="13.5" font-weight="600" fill="#E6EDF6">Grounded artifacts: news, filings, notes</text>
  <g filter="url(#sh)"><rect x="104" y="524" width="416" height="46" rx="11" fill="#29456F" stroke="#3B5C8F"/></g>
  <circle cx="72" cy="547" r="15" fill="#6C8CC7"/><text x="72" y="552" text-anchor="middle" font-size="14" font-weight="700" fill="#0B1422">8</text>
  <text x="126" y="552" font-size="13.5" font-weight="600" fill="#FFFFFF">Validation report</text>
</svg>
