<svg viewBox="0 0 680 452" width="680" height="452" xmlns="http://www.w3.org/2000/svg" preserveAspectRatio="xMidYMid meet" font-family="ui-sans-serif, -apple-system, 'Segoe UI', Roboto, Helvetica, Arial, sans-serif">
  <defs>
    <filter id="sh" x="-20%" y="-40%" width="140%" height="180%">
      <feDropShadow dx="0" dy="2" stdDeviation="5" flood-color="#000000" flood-opacity="0.35"/>
    </filter>
    <marker id="arw" viewBox="0 0 12 12" refX="8" refY="6" markerWidth="6.5" markerHeight="6.5" orient="auto-start-reverse">
      <path d="M2 2 L10 6 L2 10 Z" fill="#7E90A8"/>
    </marker>
  </defs>
  <rect x="2" y="2" width="676" height="448" rx="20" fill="#0E1726" stroke="#243450"/>
  <line x1="46" y1="68" x2="46" y2="392" stroke="#33476A" stroke-width="2.5" stroke-linecap="round"/>
  <g filter="url(#sh)"><rect x="84" y="26" width="572" height="84" rx="14" fill="#16223A" stroke="#33476A"/></g>
  <circle cx="46" cy="68" r="18" fill="#6C8CC7"/><text x="46" y="73" text-anchor="middle" font-size="15" font-weight="700" fill="#0B1422">1</text>
  <text x="112" y="63" font-size="16.5" font-weight="700" fill="#E6EDF6">David builds the worlds</text>
  <text x="112" y="87" font-size="13" fill="#93A4BC">Generated, validated, and curated for you</text>
  <g filter="url(#sh)"><rect x="84" y="134" width="572" height="84" rx="14" fill="#16223A" stroke="#33476A"/></g>
  <circle cx="46" cy="176" r="18" fill="#6C8CC7"/><text x="46" y="181" text-anchor="middle" font-size="15" font-weight="700" fill="#0B1422">2</text>
  <text x="112" y="171" font-size="16.5" font-weight="700" fill="#E6EDF6">Browse the library</text>
  <text x="112" y="195" font-size="13" fill="#93A4BC">720+ ready-made scenarios</text>
  <g filter="url(#sh)"><rect x="84" y="242" width="572" height="84" rx="14" fill="#16223A" stroke="#33476A"/></g>
  <circle cx="46" cy="284" r="18" fill="#6C8CC7"/><text x="46" y="289" text-anchor="middle" font-size="15" font-weight="700" fill="#0B1422">3</text>
  <text x="112" y="279" font-size="16.5" font-weight="700" fill="#E6EDF6">Pick a scenario</text>
  <text x="112" y="303" font-size="13" fill="#93A4BC">Grab its scenario_id</text>
  <g filter="url(#sh)"><rect x="84" y="350" width="572" height="84" rx="14" fill="#29456F" stroke="#3B5C8F"/></g>
  <circle cx="46" cy="392" r="18" fill="#6C8CC7"/><text x="46" y="397" text-anchor="middle" font-size="15" font-weight="700" fill="#0B1422">4</text>
  <text x="112" y="387" font-size="16.5" font-weight="700" fill="#FFFFFF">Query like a real API</text>
  <text x="112" y="411" font-size="13" fill="#C7D4E6">/prices, /financials, /news, and more</text>
</svg>
