<svg viewBox="0 0 680 452" width="680" height="452" xmlns="http://www.w3.org/2000/svg" preserveAspectRatio="xMidYMid meet" font-family="ui-sans-serif, -apple-system, 'Segoe UI', Roboto, Helvetica, Arial, sans-serif">
  <defs>
    <filter id="sh" x="-20%" y="-40%" width="140%" height="180%">
      <feDropShadow dx="0" dy="2" stdDeviation="5" flood-color="#1F3A60" flood-opacity="0.10"/>
    </filter>
    <marker id="arw" viewBox="0 0 12 12" refX="8" refY="6" markerWidth="6.5" markerHeight="6.5" orient="auto-start-reverse">
      <path d="M2 2 L10 6 L2 10 Z" fill="#8aa0bf"/>
    </marker>
  </defs>
  <rect x="2" y="2" width="676" height="448" rx="20" fill="#F7F9FC" stroke="#E6ECF4"/>
  <line x1="46" y1="68" x2="46" y2="392" stroke="#CBD8E8" stroke-width="2.5" stroke-linecap="round"/>
  <g filter="url(#sh)"><rect x="84" y="26" width="572" height="84" rx="14" fill="#FFFFFF" stroke="#D5DEEC"/></g>
  <circle cx="46" cy="68" r="18" fill="#1F3A60"/><text x="46" y="73" text-anchor="middle" font-size="15" font-weight="700" fill="#FFFFFF">1</text>
  <text x="112" y="63" font-size="16.5" font-weight="700" fill="#0F2143">David builds the worlds</text>
  <text x="112" y="87" font-size="13" fill="#64748B">Generated, validated, and curated for you</text>
  <g filter="url(#sh)"><rect x="84" y="134" width="572" height="84" rx="14" fill="#FFFFFF" stroke="#D5DEEC"/></g>
  <circle cx="46" cy="176" r="18" fill="#1F3A60"/><text x="46" y="181" text-anchor="middle" font-size="15" font-weight="700" fill="#FFFFFF">2</text>
  <text x="112" y="171" font-size="16.5" font-weight="700" fill="#0F2143">Browse the library</text>
  <text x="112" y="195" font-size="13" fill="#64748B">720+ ready-made scenarios</text>
  <g filter="url(#sh)"><rect x="84" y="242" width="572" height="84" rx="14" fill="#FFFFFF" stroke="#D5DEEC"/></g>
  <circle cx="46" cy="284" r="18" fill="#1F3A60"/><text x="46" y="289" text-anchor="middle" font-size="15" font-weight="700" fill="#FFFFFF">3</text>
  <text x="112" y="279" font-size="16.5" font-weight="700" fill="#0F2143">Pick a scenario</text>
  <text x="112" y="303" font-size="13" fill="#64748B">Grab its scenario_id</text>
  <g filter="url(#sh)"><rect x="84" y="350" width="572" height="84" rx="14" fill="#1F3A60"/></g>
  <circle cx="46" cy="392" r="18" fill="#1F3A60"/><text x="46" y="397" text-anchor="middle" font-size="15" font-weight="700" fill="#FFFFFF">4</text>
  <text x="112" y="387" font-size="16.5" font-weight="700" fill="#FFFFFF">Query like a real API</text>
  <text x="112" y="411" font-size="13" fill="#C7D4E6">/prices, /financials, /news, and more</text>
</svg>
